<svg width="1200" height="630" viewBox="0 0 1200 630" fill="none" xmlns="http://www.w3.org/2000/svg">
  <defs>
    <linearGradient id="bg" x1="0" y1="0" x2="1" y2="1">
      <stop offset="0" stop-color="#0b1f3a"/><stop offset="1" stop-color="#081627"/>
    </linearGradient>
    <linearGradient id="acc" x1="0" y1="0" x2="1" y2="1">
      <stop offset="0" stop-color="#19c3f5"/><stop offset="1" stop-color="#0aa6d6"/>
    </linearGradient>
  </defs>
  <rect width="1200" height="630" fill="url(#bg)"/>
  <!-- grid -->
  <g stroke="#19c3f5" stroke-width="1" opacity="0.10">
    <path d="M0 105H1200M0 210H1200M0 315H1200M0 420H1200M0 525H1200"/>
    <path d="M120 0V630M240 0V630M360 0V630M480 0V630M600 0V630M720 0V630M840 0V630M960 0V630M1080 0V630"/>
  </g>
  <!-- accent glow -->
  <circle cx="1000" cy="120" r="260" fill="#19c3f5" opacity="0.10"/>
  <!-- drone mark -->
  <g transform="translate(120 250)">
    <g stroke="url(#acc)" stroke-width="7" stroke-linecap="round">
      <line x1="55" y1="55" x2="20" y2="22"/><line x1="55" y1="55" x2="90" y2="22"/><line x1="55" y1="55" x2="20" y2="88"/><line x1="55" y1="55" x2="90" y2="88"/>
      <ellipse cx="20" cy="22" rx="17" ry="6"/><ellipse cx="90" cy="22" rx="17" ry="6"/><ellipse cx="20" cy="88" rx="17" ry="6"/><ellipse cx="90" cy="88" rx="17" ry="6"/>
    </g>
    <rect x="38" y="38" width="34" height="34" rx="10" fill="url(#acc)"/><circle cx="55" cy="55" r="6" fill="#081627"/>
  </g>
  <!-- wordmark -->
  <text x="250" y="300" font-family="'Space Grotesk','Segoe UI',sans-serif" font-size="74" font-weight="700" letter-spacing="-2" fill="#ffffff">Aerial<tspan fill="#19c3f5">Surveying</tspan></text>
  <text x="252" y="356" font-family="Inter,'Segoe UI',sans-serif" font-size="27" font-weight="500" letter-spacing="2" fill="#aebfd4">Drone Roof · Solar · HVAC · Building Inspections</text>
  <!-- divider -->
  <rect x="252" y="392" width="120" height="4" rx="2" fill="#19c3f5"/>
  <!-- trust line -->
  <text x="120" y="500" font-family="Inter,'Segoe UI',sans-serif" font-size="30" font-weight="600" fill="#ffffff">IAA-compliant · Fully insured · Nationwide across Ireland</text>
  <text x="120" y="548" font-family="Inter,'Segoe UI',sans-serif" font-size="26" font-weight="500" fill="#19c3f5">aerialsurveying.ie</text>
</svg>
